<?xml version="1.0" encoding="UTF-8" standalone="no"?>
<!DOCTYPE svg PUBLIC "-//W3C//DTD SVG 1.1//EN"
 "http://www.w3.org/Graphics/SVG/1.1/DTD/svg11.dtd">
<!-- Generated by graphviz version 9.0.0 (20230911.1827)
 -->
<!-- Title: Tree Pages: 1 -->
<svg width="734pt" height="335pt"
 viewBox="0.00 0.00 734.38 335.00" xmlns="http://www.w3.org/2000/svg" xmlns:xlink="http://www.w3.org/1999/xlink">
<g id="graph0" class="graph" transform="scale(1 1) rotate(0) translate(4 331)">
<title>Tree</title>
<polygon fill="white" stroke="none" points="-4,4 -4,-331 730.38,-331 730.38,4 -4,4"/>
<!-- 0 -->
<g id="node1" class="node">
<title>0</title>
<path fill="#a6d3f3" stroke="black" d="M447.62,-327C447.62,-327 228.38,-327 228.38,-327 222.38,-327 216.38,-321 216.38,-315 216.38,-315 216.38,-248.5 216.38,-248.5 216.38,-242.5 222.38,-236.5 228.38,-236.5 228.38,-236.5 447.62,-236.5 447.62,-236.5 453.62,-236.5 459.62,-242.5 459.62,-248.5 459.62,-248.5 459.62,-315 459.62,-315 459.62,-321 453.62,-327 447.62,-327"/>
<text text-anchor="start" x="276.88" y="-309.7" font-family="Helvetica,sans-Serif" font-size="14.00">vertical acc ≤ 0.359</text>
<text text-anchor="start" x="300.88" y="-293.2" font-family="Helvetica,sans-Serif" font-size="14.00">gini = 0.554</text>
<text text-anchor="start" x="282.5" y="-276.7" font-family="Helvetica,sans-Serif" font-size="14.00">samples = 46509</text>
<text text-anchor="start" x="224.38" y="-260.2" font-family="Helvetica,sans-Serif" font-size="14.00">value = [12789, 3993, 27949, 1778]</text>
<text text-anchor="start" x="291.5" y="-243.7" font-family="Helvetica,sans-Serif" font-size="14.00">class = 3: lying</text>
</g>
<!-- 1 -->
<g id="node2" class="node">
<title>1</title>
<path fill="#399de5" stroke="black" d="M304.5,-200.5C304.5,-200.5 159.5,-200.5 159.5,-200.5 153.5,-200.5 147.5,-194.5 147.5,-188.5 147.5,-188.5 147.5,-122 147.5,-122 147.5,-116 153.5,-110 159.5,-110 159.5,-110 304.5,-110 304.5,-110 310.5,-110 316.5,-116 316.5,-122 316.5,-122 316.5,-188.5 316.5,-188.5 316.5,-194.5 310.5,-200.5 304.5,-200.5"/>
<text text-anchor="start" x="172" y="-183.2" font-family="Helvetica,sans-Serif" font-size="14.00">lateral acc ≤ &#45;0.316</text>
<text text-anchor="start" x="194.88" y="-166.7" font-family="Helvetica,sans-Serif" font-size="14.00">gini = 0.001</text>
<text text-anchor="start" x="176.5" y="-150.2" font-family="Helvetica,sans-Serif" font-size="14.00">samples = 27936</text>
<text text-anchor="start" x="155.5" y="-133.7" font-family="Helvetica,sans-Serif" font-size="14.00">value = [14, 0, 27922, 0]</text>
<text text-anchor="start" x="185.5" y="-117.2" font-family="Helvetica,sans-Serif" font-size="14.00">class = 3: lying</text>
</g>
<!-- 0&#45;&gt;1 -->
<g id="edge1" class="edge">
<title>0&#45;&gt;1</title>
<path fill="none" stroke="black" d="M300.03,-236.15C292.72,-227.57 285,-218.5 277.49,-209.67"/>
<polygon fill="black" stroke="black" points="280.19,-207.45 271.04,-202.11 274.86,-211.99 280.19,-207.45"/>
<text text-anchor="middle" x="268.06" y="-220.82" font-family="Helvetica,sans-Serif" font-size="14.00">True</text>
</g>
<!-- 4 -->
<g id="node5" class="node">
<title>4</title>
<path fill="#efb388" stroke="black" d="M541.25,-200.5C541.25,-200.5 346.75,-200.5 346.75,-200.5 340.75,-200.5 334.75,-194.5 334.75,-188.5 334.75,-188.5 334.75,-122 334.75,-122 334.75,-116 340.75,-110 346.75,-110 346.75,-110 541.25,-110 541.25,-110 547.25,-110 553.25,-116 553.25,-122 553.25,-122 553.25,-188.5 553.25,-188.5 553.25,-194.5 547.25,-200.5 541.25,-200.5"/>
<text text-anchor="start" x="398.62" y="-183.2" font-family="Helvetica,sans-Serif" font-size="14.00">RSSI ≤ &#45;51.25</text>
<text text-anchor="start" x="406.88" y="-166.7" font-family="Helvetica,sans-Serif" font-size="14.00">gini = 0.472</text>
<text text-anchor="start" x="388.5" y="-150.2" font-family="Helvetica,sans-Serif" font-size="14.00">samples = 18573</text>
<text text-anchor="start" x="342.75" y="-133.7" font-family="Helvetica,sans-Serif" font-size="14.00">value = [12775, 3993, 27, 1778]</text>
<text text-anchor="start" x="380.62" y="-117.2" font-family="Helvetica,sans-Serif" font-size="14.00">class = 1: sit on bed</text>
</g>
<!-- 0&#45;&gt;4 -->
<g id="edge4" class="edge">
<title>0&#45;&gt;4</title>
<path fill="none" stroke="black" d="M375.97,-236.15C383.28,-227.57 391,-218.5 398.51,-209.67"/>
<polygon fill="black" stroke="black" points="401.14,-211.99 404.96,-202.11 395.81,-207.45 401.14,-211.99"/>
<text text-anchor="middle" x="407.94" y="-220.82" font-family="Helvetica,sans-Serif" font-size="14.00">False</text>
</g>
<!-- 2 -->
<g id="node3" class="node">
<title>2</title>
<path fill="#55abe9" stroke="black" d="M124,-74C124,-74 12,-74 12,-74 6,-74 0,-68 0,-62 0,-62 0,-12 0,-12 0,-6 6,0 12,0 12,0 124,0 124,0 130,0 136,-6 136,-12 136,-12 136,-62 136,-62 136,-68 130,-74 124,-74"/>
<text text-anchor="start" x="30.88" y="-56.7" font-family="Helvetica,sans-Serif" font-size="14.00">gini = 0.219</text>
<text text-anchor="start" x="24.88" y="-40.2" font-family="Helvetica,sans-Serif" font-size="14.00">samples = 48</text>
<text text-anchor="start" x="8" y="-23.7" font-family="Helvetica,sans-Serif" font-size="14.00">value = [6, 0, 42, 0]</text>
<text text-anchor="start" x="21.5" y="-7.2" font-family="Helvetica,sans-Serif" font-size="14.00">class = 3: lying</text>
</g>
<!-- 1&#45;&gt;2 -->
<g id="edge2" class="edge">
<title>1&#45;&gt;2</title>
<path fill="none" stroke="black" d="M169.06,-109.64C155.7,-100.17 141.63,-90.19 128.37,-80.8"/>
<polygon fill="black" stroke="black" points="130.76,-78.2 120.58,-75.27 126.71,-83.91 130.76,-78.2"/>
</g>
<!-- 3 -->
<g id="node4" class="node">
<title>3</title>
<path fill="#399de5" stroke="black" d="M302.38,-74C302.38,-74 165.62,-74 165.62,-74 159.62,-74 153.62,-68 153.62,-62 153.62,-62 153.62,-12 153.62,-12 153.62,-6 159.62,0 165.62,0 165.62,0 302.38,0 302.38,0 308.38,0 314.38,-6 314.38,-12 314.38,-12 314.38,-62 314.38,-62 314.38,-68 308.38,-74 302.38,-74"/>
<text text-anchor="start" x="196.88" y="-56.7" font-family="Helvetica,sans-Serif" font-size="14.00">gini = 0.001</text>
<text text-anchor="start" x="178.5" y="-40.2" font-family="Helvetica,sans-Serif" font-size="14.00">samples = 27888</text>
<text text-anchor="start" x="161.62" y="-23.7" font-family="Helvetica,sans-Serif" font-size="14.00">value = [8, 0, 27880, 0]</text>
<text text-anchor="start" x="187.5" y="-7.2" font-family="Helvetica,sans-Serif" font-size="14.00">class = 3: lying</text>
</g>
<!-- 1&#45;&gt;3 -->
<g id="edge3" class="edge">
<title>1&#45;&gt;3</title>
<path fill="none" stroke="black" d="M232.77,-109.64C232.9,-101.81 233.04,-93.63 233.18,-85.72"/>
<polygon fill="black" stroke="black" points="236.68,-85.97 233.35,-75.91 229.68,-85.85 236.68,-85.97"/>
</g>
<!-- 5 -->
<g id="node6" class="node">
<title>5</title>
<path fill="#eeae80" stroke="black" d="M535.12,-74C535.12,-74 348.88,-74 348.88,-74 342.88,-74 336.88,-68 336.88,-62 336.88,-62 336.88,-12 336.88,-12 336.88,-6 342.88,0 348.88,0 348.88,0 535.12,0 535.12,0 541.12,0 547.12,-6 547.12,-12 547.12,-12 547.12,-62 547.12,-62 547.12,-68 541.12,-74 535.12,-74"/>
<text text-anchor="start" x="404.88" y="-56.7" font-family="Helvetica,sans-Serif" font-size="14.00">gini = 0.428</text>
<text text-anchor="start" x="386.5" y="-40.2" font-family="Helvetica,sans-Serif" font-size="14.00">samples = 17697</text>
<text text-anchor="start" x="344.88" y="-23.7" font-family="Helvetica,sans-Serif" font-size="14.00">value = [12746, 3979, 23, 949]</text>
<text text-anchor="start" x="378.62" y="-7.2" font-family="Helvetica,sans-Serif" font-size="14.00">class = 1: sit on bed</text>
</g>
<!-- 4&#45;&gt;5 -->
<g id="edge5" class="edge">
<title>4&#45;&gt;5</title>
<path fill="none" stroke="black" d="M443.23,-109.64C443.1,-101.81 442.96,-93.63 442.82,-85.72"/>
<polygon fill="black" stroke="black" points="446.32,-85.85 442.65,-75.91 439.32,-85.97 446.32,-85.85"/>
</g>
<!-- 6 -->
<g id="node7" class="node">
<title>6</title>
<path fill="#d944e6" stroke="black" d="M714.38,-74C714.38,-74 577.62,-74 577.62,-74 571.62,-74 565.62,-68 565.62,-62 565.62,-62 565.62,-12 565.62,-12 565.62,-6 571.62,0 577.62,0 577.62,0 714.38,0 714.38,0 720.38,0 726.38,-6 726.38,-12 726.38,-12 726.38,-62 726.38,-62 726.38,-68 720.38,-74 714.38,-74"/>
<text text-anchor="start" x="608.88" y="-56.7" font-family="Helvetica,sans-Serif" font-size="14.00">gini = 0.103</text>
<text text-anchor="start" x="598.75" y="-40.2" font-family="Helvetica,sans-Serif" font-size="14.00">samples = 876</text>
<text text-anchor="start" x="573.62" y="-23.7" font-family="Helvetica,sans-Serif" font-size="14.00">value = [29, 14, 4, 829]</text>
<text text-anchor="start" x="579.62" y="-7.2" font-family="Helvetica,sans-Serif" font-size="14.00">class = 4: ambulating</text>
</g>
<!-- 4&#45;&gt;6 -->
<g id="edge6" class="edge">
<title>4&#45;&gt;6</title>
<path fill="none" stroke="black" d="M521.52,-109.64C538.45,-99.9 556.31,-89.62 573.05,-79.98"/>
<polygon fill="black" stroke="black" points="574.53,-83.17 581.45,-75.15 571.04,-77.1 574.53,-83.17"/>
</g>
</g>
</svg>
