<?xml version="1.0" encoding="UTF-8" standalone="no"?>
<!DOCTYPE svg PUBLIC "-//W3C//DTD SVG 1.1//EN"
 "http://www.w3.org/Graphics/SVG/1.1/DTD/svg11.dtd">
<!-- Generated by graphviz version 9.0.0 (20230911.1827)
 -->
<!-- Title: Tree Pages: 1 -->
<svg width="1418pt" height="462pt"
 viewBox="0.00 0.00 1418.12 461.50" xmlns="http://www.w3.org/2000/svg" xmlns:xlink="http://www.w3.org/1999/xlink">
<g id="graph0" class="graph" transform="scale(1 1) rotate(0) translate(4 457.5)">
<title>Tree</title>
<polygon fill="white" stroke="none" points="-4,4 -4,-457.5 1414.12,-457.5 1414.12,4 -4,4"/>
<!-- 0 -->
<g id="node1" class="node">
<title>0</title>
<path fill="#a6d3f3" stroke="black" d="M768.62,-453.5C768.62,-453.5 549.38,-453.5 549.38,-453.5 543.38,-453.5 537.38,-447.5 537.38,-441.5 537.38,-441.5 537.38,-375 537.38,-375 537.38,-369 543.38,-363 549.38,-363 549.38,-363 768.62,-363 768.62,-363 774.62,-363 780.62,-369 780.62,-375 780.62,-375 780.62,-441.5 780.62,-441.5 780.62,-447.5 774.62,-453.5 768.62,-453.5"/>
<text text-anchor="start" x="597.88" y="-436.2" font-family="Helvetica,sans-Serif" font-size="14.00">vertical acc ≤ 0.359</text>
<text text-anchor="start" x="621.88" y="-419.7" font-family="Helvetica,sans-Serif" font-size="14.00">gini = 0.554</text>
<text text-anchor="start" x="603.5" y="-403.2" font-family="Helvetica,sans-Serif" font-size="14.00">samples = 46509</text>
<text text-anchor="start" x="545.38" y="-386.7" font-family="Helvetica,sans-Serif" font-size="14.00">value = [12789, 3993, 27949, 1778]</text>
<text text-anchor="start" x="612.5" y="-370.2" font-family="Helvetica,sans-Serif" font-size="14.00">class = 3: lying</text>
</g>
<!-- 1 -->
<g id="node2" class="node">
<title>1</title>
<path fill="#399de5" stroke="black" d="M546.5,-327C546.5,-327 401.5,-327 401.5,-327 395.5,-327 389.5,-321 389.5,-315 389.5,-315 389.5,-248.5 389.5,-248.5 389.5,-242.5 395.5,-236.5 401.5,-236.5 401.5,-236.5 546.5,-236.5 546.5,-236.5 552.5,-236.5 558.5,-242.5 558.5,-248.5 558.5,-248.5 558.5,-315 558.5,-315 558.5,-321 552.5,-327 546.5,-327"/>
<text text-anchor="start" x="414" y="-309.7" font-family="Helvetica,sans-Serif" font-size="14.00">lateral acc ≤ &#45;0.316</text>
<text text-anchor="start" x="436.88" y="-293.2" font-family="Helvetica,sans-Serif" font-size="14.00">gini = 0.001</text>
<text text-anchor="start" x="418.5" y="-276.7" font-family="Helvetica,sans-Serif" font-size="14.00">samples = 27936</text>
<text text-anchor="start" x="397.5" y="-260.2" font-family="Helvetica,sans-Serif" font-size="14.00">value = [14, 0, 27922, 0]</text>
<text text-anchor="start" x="427.5" y="-243.7" font-family="Helvetica,sans-Serif" font-size="14.00">class = 3: lying</text>
</g>
<!-- 0&#45;&gt;1 -->
<g id="edge1" class="edge">
<title>0&#45;&gt;1</title>
<path fill="none" stroke="black" d="M592.73,-362.65C578.79,-353.27 563.97,-343.3 549.71,-333.7"/>
<polygon fill="black" stroke="black" points="551.93,-330.98 541.68,-328.3 548.02,-336.78 551.93,-330.98"/>
<text text-anchor="middle" x="545.22" y="-346.94" font-family="Helvetica,sans-Serif" font-size="14.00">True</text>
</g>
<!-- 8 -->
<g id="node9" class="node">
<title>8</title>
<path fill="#efb388" stroke="black" d="M963.25,-327C963.25,-327 768.75,-327 768.75,-327 762.75,-327 756.75,-321 756.75,-315 756.75,-315 756.75,-248.5 756.75,-248.5 756.75,-242.5 762.75,-236.5 768.75,-236.5 768.75,-236.5 963.25,-236.5 963.25,-236.5 969.25,-236.5 975.25,-242.5 975.25,-248.5 975.25,-248.5 975.25,-315 975.25,-315 975.25,-321 969.25,-327 963.25,-327"/>
<text text-anchor="start" x="820.62" y="-309.7" font-family="Helvetica,sans-Serif" font-size="14.00">RSSI ≤ &#45;51.25</text>
<text text-anchor="start" x="828.88" y="-293.2" font-family="Helvetica,sans-Serif" font-size="14.00">gini = 0.472</text>
<text text-anchor="start" x="810.5" y="-276.7" font-family="Helvetica,sans-Serif" font-size="14.00">samples = 18573</text>
<text text-anchor="start" x="764.75" y="-260.2" font-family="Helvetica,sans-Serif" font-size="14.00">value = [12775, 3993, 27, 1778]</text>
<text text-anchor="start" x="802.62" y="-243.7" font-family="Helvetica,sans-Serif" font-size="14.00">class = 1: sit on bed</text>
</g>
<!-- 0&#45;&gt;8 -->
<g id="edge8" class="edge">
<title>0&#45;&gt;8</title>
<path fill="none" stroke="black" d="M733.15,-362.65C749.05,-353.09 765.96,-342.92 782.2,-333.15"/>
<polygon fill="black" stroke="black" points="783.61,-336.39 790.38,-328.23 780,-330.39 783.61,-336.39"/>
<text text-anchor="middle" x="785.64" y="-346.66" font-family="Helvetica,sans-Serif" font-size="14.00">False</text>
</g>
<!-- 2 -->
<g id="node3" class="node">
<title>2</title>
<path fill="#55abe9" stroke="black" d="M281,-200.5C281,-200.5 169,-200.5 169,-200.5 163,-200.5 157,-194.5 157,-188.5 157,-188.5 157,-122 157,-122 157,-116 163,-110 169,-110 169,-110 281,-110 281,-110 287,-110 293,-116 293,-122 293,-122 293,-188.5 293,-188.5 293,-194.5 287,-200.5 281,-200.5"/>
<text text-anchor="start" x="179.62" y="-183.2" font-family="Helvetica,sans-Serif" font-size="14.00">phase ≤ 6.272</text>
<text text-anchor="start" x="187.88" y="-166.7" font-family="Helvetica,sans-Serif" font-size="14.00">gini = 0.219</text>
<text text-anchor="start" x="181.88" y="-150.2" font-family="Helvetica,sans-Serif" font-size="14.00">samples = 48</text>
<text text-anchor="start" x="165" y="-133.7" font-family="Helvetica,sans-Serif" font-size="14.00">value = [6, 0, 42, 0]</text>
<text text-anchor="start" x="178.5" y="-117.2" font-family="Helvetica,sans-Serif" font-size="14.00">class = 3: lying</text>
</g>
<!-- 1&#45;&gt;2 -->
<g id="edge2" class="edge">
<title>1&#45;&gt;2</title>
<path fill="none" stroke="black" d="M389,-238.25C361.27,-224.39 330.62,-209.06 303.39,-195.45"/>
<polygon fill="black" stroke="black" points="305,-192.34 294.49,-191 301.87,-198.6 305,-192.34"/>
</g>
<!-- 5 -->
<g id="node6" class="node">
<title>5</title>
<path fill="#399de5" stroke="black" d="M542.38,-200.5C542.38,-200.5 405.62,-200.5 405.62,-200.5 399.62,-200.5 393.62,-194.5 393.62,-188.5 393.62,-188.5 393.62,-122 393.62,-122 393.62,-116 399.62,-110 405.62,-110 405.62,-110 542.38,-110 542.38,-110 548.38,-110 554.38,-116 554.38,-122 554.38,-122 554.38,-188.5 554.38,-188.5 554.38,-194.5 548.38,-200.5 542.38,-200.5"/>
<text text-anchor="start" x="416.25" y="-183.2" font-family="Helvetica,sans-Serif" font-size="14.00">lateral acc ≤ 0.174</text>
<text text-anchor="start" x="436.88" y="-166.7" font-family="Helvetica,sans-Serif" font-size="14.00">gini = 0.001</text>
<text text-anchor="start" x="418.5" y="-150.2" font-family="Helvetica,sans-Serif" font-size="14.00">samples = 27888</text>
<text text-anchor="start" x="401.62" y="-133.7" font-family="Helvetica,sans-Serif" font-size="14.00">value = [8, 0, 27880, 0]</text>
<text text-anchor="start" x="427.5" y="-117.2" font-family="Helvetica,sans-Serif" font-size="14.00">class = 3: lying</text>
</g>
<!-- 1&#45;&gt;5 -->
<g id="edge5" class="edge">
<title>1&#45;&gt;5</title>
<path fill="none" stroke="black" d="M474,-236.15C474,-228.47 474,-220.39 474,-212.44"/>
<polygon fill="black" stroke="black" points="477.5,-212.47 474,-202.47 470.5,-212.47 477.5,-212.47"/>
</g>
<!-- 3 -->
<g id="node4" class="node">
<title>3</title>
<path fill="#399de5" stroke="black" d="M124,-74C124,-74 12,-74 12,-74 6,-74 0,-68 0,-62 0,-62 0,-12 0,-12 0,-6 6,0 12,0 12,0 124,0 124,0 130,0 136,-6 136,-12 136,-12 136,-62 136,-62 136,-68 130,-74 124,-74"/>
<text text-anchor="start" x="39.12" y="-56.7" font-family="Helvetica,sans-Serif" font-size="14.00">gini = 0.0</text>
<text text-anchor="start" x="24.88" y="-40.2" font-family="Helvetica,sans-Serif" font-size="14.00">samples = 42</text>
<text text-anchor="start" x="8" y="-23.7" font-family="Helvetica,sans-Serif" font-size="14.00">value = [0, 0, 42, 0]</text>
<text text-anchor="start" x="21.5" y="-7.2" font-family="Helvetica,sans-Serif" font-size="14.00">class = 3: lying</text>
</g>
<!-- 2&#45;&gt;3 -->
<g id="edge3" class="edge">
<title>2&#45;&gt;3</title>
<path fill="none" stroke="black" d="M164.75,-109.64C152.08,-100.26 138.75,-90.39 126.16,-81.07"/>
<polygon fill="black" stroke="black" points="128.49,-78.43 118.37,-75.29 124.32,-84.06 128.49,-78.43"/>
</g>
<!-- 4 -->
<g id="node5" class="node">
<title>4</title>
<path fill="#e58139" stroke="black" d="M284.38,-74C284.38,-74 165.62,-74 165.62,-74 159.62,-74 153.62,-68 153.62,-62 153.62,-62 153.62,-12 153.62,-12 153.62,-6 159.62,0 165.62,0 165.62,0 284.38,0 284.38,0 290.38,0 296.38,-6 296.38,-12 296.38,-12 296.38,-62 296.38,-62 296.38,-68 290.38,-74 284.38,-74"/>
<text text-anchor="start" x="196.12" y="-56.7" font-family="Helvetica,sans-Serif" font-size="14.00">gini = 0.0</text>
<text text-anchor="start" x="186" y="-40.2" font-family="Helvetica,sans-Serif" font-size="14.00">samples = 6</text>
<text text-anchor="start" x="169.12" y="-23.7" font-family="Helvetica,sans-Serif" font-size="14.00">value = [6, 0, 0, 0]</text>
<text text-anchor="start" x="161.62" y="-7.2" font-family="Helvetica,sans-Serif" font-size="14.00">class = 1: sit on bed</text>
</g>
<!-- 2&#45;&gt;4 -->
<g id="edge4" class="edge">
<title>2&#45;&gt;4</title>
<path fill="none" stroke="black" d="M225,-109.64C225,-101.81 225,-93.63 225,-85.72"/>
<polygon fill="black" stroke="black" points="228.5,-85.91 225,-75.91 221.5,-85.91 228.5,-85.91"/>
</g>
<!-- 6 -->
<g id="node7" class="node">
<title>6</title>
<path fill="#399de5" stroke="black" d="M463.38,-74C463.38,-74 326.62,-74 326.62,-74 320.62,-74 314.62,-68 314.62,-62 314.62,-62 314.62,-12 314.62,-12 314.62,-6 320.62,0 326.62,0 326.62,0 463.38,0 463.38,0 469.38,0 475.38,-6 475.38,-12 475.38,-12 475.38,-62 475.38,-62 475.38,-68 469.38,-74 463.38,-74"/>
<text text-anchor="start" x="366.12" y="-56.7" font-family="Helvetica,sans-Serif" font-size="14.00">gini = 0.0</text>
<text text-anchor="start" x="339.5" y="-40.2" font-family="Helvetica,sans-Serif" font-size="14.00">samples = 26259</text>
<text text-anchor="start" x="322.62" y="-23.7" font-family="Helvetica,sans-Serif" font-size="14.00">value = [2, 0, 26257, 0]</text>
<text text-anchor="start" x="348.5" y="-7.2" font-family="Helvetica,sans-Serif" font-size="14.00">class = 3: lying</text>
</g>
<!-- 5&#45;&gt;6 -->
<g id="edge6" class="edge">
<title>5&#45;&gt;6</title>
<path fill="none" stroke="black" d="M443.68,-109.64C437.93,-101.17 431.9,-92.3 426.12,-83.8"/>
<polygon fill="black" stroke="black" points="429.1,-81.95 420.58,-75.65 423.31,-85.88 429.1,-81.95"/>
</g>
<!-- 7 -->
<g id="node8" class="node">
<title>7</title>
<path fill="#3a9de5" stroke="black" d="M634.25,-74C634.25,-74 505.75,-74 505.75,-74 499.75,-74 493.75,-68 493.75,-62 493.75,-62 493.75,-12 493.75,-12 493.75,-6 499.75,0 505.75,0 505.75,0 634.25,0 634.25,0 640.25,0 646.25,-6 646.25,-12 646.25,-12 646.25,-62 646.25,-62 646.25,-68 640.25,-74 634.25,-74"/>
<text text-anchor="start" x="532.88" y="-56.7" font-family="Helvetica,sans-Serif" font-size="14.00">gini = 0.007</text>
<text text-anchor="start" x="518.62" y="-40.2" font-family="Helvetica,sans-Serif" font-size="14.00">samples = 1629</text>
<text text-anchor="start" x="501.75" y="-23.7" font-family="Helvetica,sans-Serif" font-size="14.00">value = [6, 0, 1623, 0]</text>
<text text-anchor="start" x="523.5" y="-7.2" font-family="Helvetica,sans-Serif" font-size="14.00">class = 3: lying</text>
</g>
<!-- 5&#45;&gt;7 -->
<g id="edge7" class="edge">
<title>5&#45;&gt;7</title>
<path fill="none" stroke="black" d="M510.84,-109.64C517.98,-100.99 525.48,-91.92 532.63,-83.25"/>
<polygon fill="black" stroke="black" points="535.31,-85.5 538.98,-75.56 529.92,-81.04 535.31,-85.5"/>
</g>
<!-- 9 -->
<g id="node10" class="node">
<title>9</title>
<path fill="#eeae80" stroke="black" d="M959.12,-200.5C959.12,-200.5 772.88,-200.5 772.88,-200.5 766.88,-200.5 760.88,-194.5 760.88,-188.5 760.88,-188.5 760.88,-122 760.88,-122 760.88,-116 766.88,-110 772.88,-110 772.88,-110 959.12,-110 959.12,-110 965.12,-110 971.12,-116 971.12,-122 971.12,-122 971.12,-188.5 971.12,-188.5 971.12,-194.5 965.12,-200.5 959.12,-200.5"/>
<text text-anchor="start" x="807.5" y="-183.2" font-family="Helvetica,sans-Serif" font-size="14.00">frontal acc ≤ 0.512</text>
<text text-anchor="start" x="828.88" y="-166.7" font-family="Helvetica,sans-Serif" font-size="14.00">gini = 0.428</text>
<text text-anchor="start" x="810.5" y="-150.2" font-family="Helvetica,sans-Serif" font-size="14.00">samples = 17697</text>
<text text-anchor="start" x="768.88" y="-133.7" font-family="Helvetica,sans-Serif" font-size="14.00">value = [12746, 3979, 23, 949]</text>
<text text-anchor="start" x="802.62" y="-117.2" font-family="Helvetica,sans-Serif" font-size="14.00">class = 1: sit on bed</text>
</g>
<!-- 8&#45;&gt;9 -->
<g id="edge9" class="edge">
<title>8&#45;&gt;9</title>
<path fill="none" stroke="black" d="M866,-236.15C866,-228.47 866,-220.39 866,-212.44"/>
<polygon fill="black" stroke="black" points="869.5,-212.47 866,-202.47 862.5,-212.47 869.5,-212.47"/>
</g>
<!-- 12 -->
<g id="node13" class="node">
<title>12</title>
<path fill="#d944e6" stroke="black" d="M1240.38,-200.5C1240.38,-200.5 1103.62,-200.5 1103.62,-200.5 1097.62,-200.5 1091.62,-194.5 1091.62,-188.5 1091.62,-188.5 1091.62,-122 1091.62,-122 1091.62,-116 1097.62,-110 1103.62,-110 1103.62,-110 1240.38,-110 1240.38,-110 1246.38,-110 1252.38,-116 1252.38,-122 1252.38,-122 1252.38,-188.5 1252.38,-188.5 1252.38,-194.5 1246.38,-200.5 1240.38,-200.5"/>
<text text-anchor="start" x="1117.62" y="-183.2" font-family="Helvetica,sans-Serif" font-size="14.00">frontal acc ≤ 0.53</text>
<text text-anchor="start" x="1134.88" y="-166.7" font-family="Helvetica,sans-Serif" font-size="14.00">gini = 0.103</text>
<text text-anchor="start" x="1124.75" y="-150.2" font-family="Helvetica,sans-Serif" font-size="14.00">samples = 876</text>
<text text-anchor="start" x="1099.62" y="-133.7" font-family="Helvetica,sans-Serif" font-size="14.00">value = [29, 14, 4, 829]</text>
<text text-anchor="start" x="1105.62" y="-117.2" font-family="Helvetica,sans-Serif" font-size="14.00">class = 4: ambulating</text>
</g>
<!-- 8&#45;&gt;12 -->
<g id="edge12" class="edge">
<title>8&#45;&gt;12</title>
<path fill="none" stroke="black" d="M975.61,-236.15C1010.12,-222.11 1047.83,-206.77 1080.91,-193.31"/>
<polygon fill="black" stroke="black" points="1082.13,-196.59 1090.07,-189.58 1079.49,-190.11 1082.13,-196.59"/>
</g>
<!-- 10 -->
<g id="node11" class="node">
<title>10</title>
<path fill="#ea9a60" stroke="black" d="M854,-74C854,-74 676,-74 676,-74 670,-74 664,-68 664,-62 664,-62 664,-12 664,-12 664,-6 670,0 676,0 676,0 854,0 854,0 860,0 866,-6 866,-12 866,-12 866,-62 866,-62 866,-68 860,-74 854,-74"/>
<text text-anchor="start" x="727.88" y="-56.7" font-family="Helvetica,sans-Serif" font-size="14.00">gini = 0.305</text>
<text text-anchor="start" x="709.5" y="-40.2" font-family="Helvetica,sans-Serif" font-size="14.00">samples = 12507</text>
<text text-anchor="start" x="672" y="-23.7" font-family="Helvetica,sans-Serif" font-size="14.00">value = [10302, 1350, 2, 853]</text>
<text text-anchor="start" x="701.62" y="-7.2" font-family="Helvetica,sans-Serif" font-size="14.00">class = 1: sit on bed</text>
</g>
<!-- 9&#45;&gt;10 -->
<g id="edge10" class="edge">
<title>9&#45;&gt;10</title>
<path fill="none" stroke="black" d="M827.24,-109.64C819.65,-100.9 811.68,-91.73 804.07,-82.97"/>
<polygon fill="black" stroke="black" points="806.81,-80.79 797.61,-75.54 801.53,-85.38 806.81,-80.79"/>
</g>
<!-- 11 -->
<g id="node12" class="node">
<title>11</title>
<path fill="#f3fdf2" stroke="black" d="M1065.88,-74C1065.88,-74 896.12,-74 896.12,-74 890.12,-74 884.12,-68 884.12,-62 884.12,-62 884.12,-12 884.12,-12 884.12,-6 890.12,0 896.12,0 896.12,0 1065.88,0 1065.88,0 1071.88,0 1077.88,-6 1077.88,-12 1077.88,-12 1077.88,-62 1077.88,-62 1077.88,-68 1071.88,-74 1065.88,-74"/>
<text text-anchor="start" x="943.88" y="-56.7" font-family="Helvetica,sans-Serif" font-size="14.00">gini = 0.521</text>
<text text-anchor="start" x="929.62" y="-40.2" font-family="Helvetica,sans-Serif" font-size="14.00">samples = 5190</text>
<text text-anchor="start" x="892.12" y="-23.7" font-family="Helvetica,sans-Serif" font-size="14.00">value = [2444, 2629, 21, 96]</text>
<text text-anchor="start" x="913.12" y="-7.2" font-family="Helvetica,sans-Serif" font-size="14.00">class = &#160;2: sit on chair</text>
</g>
<!-- 9&#45;&gt;11 -->
<g id="edge11" class="edge">
<title>9&#45;&gt;11</title>
<path fill="none" stroke="black" d="M910.13,-109.64C918.96,-100.72 928.23,-91.34 937.05,-82.43"/>
<polygon fill="black" stroke="black" points="939.39,-85.04 943.93,-75.47 934.41,-80.12 939.39,-85.04"/>
</g>
<!-- 13 -->
<g id="node14" class="node">
<title>13</title>
<path fill="#d83de6" stroke="black" d="M1236.25,-74C1236.25,-74 1107.75,-74 1107.75,-74 1101.75,-74 1095.75,-68 1095.75,-62 1095.75,-62 1095.75,-12 1095.75,-12 1095.75,-6 1101.75,0 1107.75,0 1107.75,0 1236.25,0 1236.25,0 1242.25,0 1248.25,-6 1248.25,-12 1248.25,-12 1248.25,-62 1248.25,-62 1248.25,-68 1242.25,-74 1236.25,-74"/>
<text text-anchor="start" x="1134.88" y="-56.7" font-family="Helvetica,sans-Serif" font-size="14.00">gini = 0.043</text>
<text text-anchor="start" x="1124.75" y="-40.2" font-family="Helvetica,sans-Serif" font-size="14.00">samples = 824</text>
<text text-anchor="start" x="1103.75" y="-23.7" font-family="Helvetica,sans-Serif" font-size="14.00">value = [4, 14, 0, 806]</text>
<text text-anchor="start" x="1105.62" y="-7.2" font-family="Helvetica,sans-Serif" font-size="14.00">class = 4: ambulating</text>
</g>
<!-- 12&#45;&gt;13 -->
<g id="edge13" class="edge">
<title>12&#45;&gt;13</title>
<path fill="none" stroke="black" d="M1172,-109.64C1172,-101.81 1172,-93.63 1172,-85.72"/>
<polygon fill="black" stroke="black" points="1175.5,-85.91 1172,-75.91 1168.5,-85.91 1175.5,-85.91"/>
</g>
<!-- 14 -->
<g id="node15" class="node">
<title>14</title>
<path fill="#fdf6f1" stroke="black" d="M1398.12,-74C1398.12,-74 1277.88,-74 1277.88,-74 1271.88,-74 1265.88,-68 1265.88,-62 1265.88,-62 1265.88,-12 1265.88,-12 1265.88,-6 1271.88,0 1277.88,0 1277.88,0 1398.12,0 1398.12,0 1404.12,0 1410.12,-6 1410.12,-12 1410.12,-12 1410.12,-62 1410.12,-62 1410.12,-68 1404.12,-74 1398.12,-74"/>
<text text-anchor="start" x="1300.88" y="-56.7" font-family="Helvetica,sans-Serif" font-size="14.00">gini = 0.567</text>
<text text-anchor="start" x="1294.88" y="-40.2" font-family="Helvetica,sans-Serif" font-size="14.00">samples = 52</text>
<text text-anchor="start" x="1273.88" y="-23.7" font-family="Helvetica,sans-Serif" font-size="14.00">value = [25, 0, 4, 23]</text>
<text text-anchor="start" x="1274.62" y="-7.2" font-family="Helvetica,sans-Serif" font-size="14.00">class = 1: sit on bed</text>
</g>
<!-- 12&#45;&gt;14 -->
<g id="edge14" class="edge">
<title>12&#45;&gt;14</title>
<path fill="none" stroke="black" d="M1235.71,-109.64C1249.23,-100.17 1263.47,-90.19 1276.89,-80.8"/>
<polygon fill="black" stroke="black" points="1278.61,-83.87 1284.79,-75.26 1274.59,-78.13 1278.61,-83.87"/>
</g>
</g>
</svg>
