<?xml version="1.0" encoding="UTF-8" standalone="no"?>
<!DOCTYPE svg PUBLIC "-//W3C//DTD SVG 1.1//EN"
 "http://www.w3.org/Graphics/SVG/1.1/DTD/svg11.dtd">
<!-- Generated by graphviz version 9.0.0 (0)
 -->
<!-- Pages: 1 -->
<svg width="348pt" height="276pt"
 viewBox="0.00 0.00 347.98 275.63" xmlns="http://www.w3.org/2000/svg" xmlns:xlink="http://www.w3.org/1999/xlink">
<g id="graph0" class="graph" transform="scale(1 1) rotate(0) translate(4 271.63)">
<polygon fill="white" stroke="none" points="-4,4 -4,-271.63 343.98,-271.63 343.98,4 -4,4"/>
<g id="clust1" class="cluster">
<title>clusterpredictors (14)</title>
<path fill="none" stroke="black" d="M245.98,-137.82C245.98,-137.82 319.98,-137.82 319.98,-137.82 325.98,-137.82 331.98,-143.82 331.98,-149.82 331.98,-149.82 331.98,-247.63 331.98,-247.63 331.98,-253.63 325.98,-259.63 319.98,-259.63 319.98,-259.63 245.98,-259.63 245.98,-259.63 239.98,-259.63 233.98,-253.63 233.98,-247.63 233.98,-247.63 233.98,-149.82 233.98,-149.82 233.98,-143.82 239.98,-137.82 245.98,-137.82"/>
<text text-anchor="middle" x="283.86" y="-145.02" font-family="Times New Roman,serif" font-size="14.00">predictors (14)</text>
</g>
<g id="clust2" class="cluster">
<title>cluster8465</title>
<path fill="none" stroke="black" d="M141.98,-8C141.98,-8 215.98,-8 215.98,-8 221.98,-8 227.98,-14 227.98,-20 227.98,-20 227.98,-117.82 227.98,-117.82 227.98,-123.82 221.98,-129.82 215.98,-129.82 215.98,-129.82 141.98,-129.82 141.98,-129.82 135.98,-129.82 129.98,-123.82 129.98,-117.82 129.98,-117.82 129.98,-20 129.98,-20 129.98,-14 135.98,-8 141.98,-8"/>
<text text-anchor="middle" x="206.48" y="-15.2" font-family="Times New Roman,serif" font-size="14.00">8465</text>
</g>
<!-- sigma -->
<g id="node1" class="node">
<title>sigma</title>
<ellipse fill="none" stroke="black" cx="57.98" cy="-210.98" rx="57.98" ry="40.66"/>
<text text-anchor="middle" x="57.98" y="-222.43" font-family="Times New Roman,serif" font-size="14.00">sigma</text>
<text text-anchor="middle" x="57.98" y="-205.93" font-family="Times New Roman,serif" font-size="14.00">~</text>
<text text-anchor="middle" x="57.98" y="-189.43" font-family="Times New Roman,serif" font-size="14.00">HalfNormal</text>
</g>
<!-- y -->
<g id="node4" class="node">
<title>y</title>
<ellipse fill="lightgrey" stroke="black" cx="178.98" cy="-81.16" rx="41.01" ry="40.66"/>
<text text-anchor="middle" x="178.98" y="-92.61" font-family="Times New Roman,serif" font-size="14.00">y</text>
<text text-anchor="middle" x="178.98" y="-76.11" font-family="Times New Roman,serif" font-size="14.00">~</text>
<text text-anchor="middle" x="178.98" y="-59.61" font-family="Times New Roman,serif" font-size="14.00">Normal</text>
</g>
<!-- sigma&#45;&gt;y -->
<g id="edge1" class="edge">
<title>sigma&#45;&gt;y</title>
<path fill="none" stroke="black" d="M88.85,-176.42C100.16,-164.21 113.1,-150.34 124.98,-137.82 130.85,-131.64 137.11,-125.11 143.22,-118.79"/>
<polygon fill="black" stroke="black" points="145.34,-121.64 149.78,-112.02 140.31,-116.77 145.34,-121.64"/>
</g>
<!-- intercept -->
<g id="node2" class="node">
<title>intercept</title>
<ellipse fill="none" stroke="black" cx="178.98" cy="-210.98" rx="44.72" ry="40.66"/>
<text text-anchor="middle" x="178.98" y="-222.43" font-family="Times New Roman,serif" font-size="14.00">intercept</text>
<text text-anchor="middle" x="178.98" y="-205.93" font-family="Times New Roman,serif" font-size="14.00">~</text>
<text text-anchor="middle" x="178.98" y="-189.43" font-family="Times New Roman,serif" font-size="14.00">Normal</text>
</g>
<!-- intercept&#45;&gt;y -->
<g id="edge2" class="edge">
<title>intercept&#45;&gt;y</title>
<path fill="none" stroke="black" d="M178.98,-169.88C178.98,-158.34 178.98,-145.6 178.98,-133.48"/>
<polygon fill="black" stroke="black" points="182.48,-133.62 178.98,-123.62 175.48,-133.62 182.48,-133.62"/>
</g>
<!-- coeffs -->
<g id="node3" class="node">
<title>coeffs</title>
<ellipse fill="none" stroke="black" cx="282.98" cy="-210.98" rx="41.01" ry="40.66"/>
<text text-anchor="middle" x="282.98" y="-222.43" font-family="Times New Roman,serif" font-size="14.00">coeffs</text>
<text text-anchor="middle" x="282.98" y="-205.93" font-family="Times New Roman,serif" font-size="14.00">~</text>
<text text-anchor="middle" x="282.98" y="-189.43" font-family="Times New Roman,serif" font-size="14.00">Normal</text>
</g>
<!-- coeffs&#45;&gt;y -->
<g id="edge3" class="edge">
<title>coeffs&#45;&gt;y</title>
<path fill="none" stroke="black" d="M261.19,-176.09C252.8,-163.72 242.86,-149.83 232.98,-137.82 227.57,-131.24 221.54,-124.51 215.52,-118.11"/>
<polygon fill="black" stroke="black" points="218.44,-116.1 208.99,-111.3 213.39,-120.94 218.44,-116.1"/>
</g>
</g>
</svg>
